<?xml version="1.0" standalone="no"?>
<!DOCTYPE svg PUBLIC "-//W3C//DTD SVG 20010904//EN"
 "http://www.w3.org/TR/2001/REC-SVG-20010904/DTD/svg10.dtd">
<svg version="1.0" xmlns="http://www.w3.org/2000/svg"
 width="1000.000000pt" height="1000.000000pt" viewBox="0 0 1000.000000 1000.000000"
 preserveAspectRatio="xMidYMid meet">
<metadata>
Created by potrace 1.14, written by Peter Selinger 2001-2017
</metadata>
<g transform="translate(0.000000,1000.000000) scale(0.100000,-0.100000)"
fill="#000000" stroke="none">
<path d="M3945 7298 c0 -40 -2 -108 -5 -151 -3 -47 -1 -79 5 -81 6 -3 4 -8 -3
-14 -19 -13 -25 -163 -26 -712 0 -421 4 -566 19 -640 13 -65 16 -162 4 -176
-6 -8 -9 -14 -5 -14 4 0 -1 -11 -10 -24 -8 -14 -14 -33 -12 -43 1 -10 -2 -25
-7 -33 -13 -21 -14 -54 -1 -62 7 -5 5 -12 -8 -21 -10 -8 -18 -26 -18 -42 0
-15 -25 -75 -55 -134 -29 -58 -71 -158 -92 -221 -22 -63 -53 -151 -70 -195
-112 -286 -120 -609 -21 -820 18 -38 42 -81 52 -94 19 -25 19 -25 -9 -48 l-28
-24 31 15 32 15 41 -54 c37 -49 170 -205 204 -239 231 -235 577 -655 577 -701
0 -6 14 -30 31 -55 18 -27 29 -36 26 -24 -6 27 -2 34 50 76 28 24 63 41 108
52 69 17 215 86 250 117 11 10 42 30 69 44 l49 26 52 -35 c33 -21 64 -34 86
-34 19 -1 48 -5 64 -9 17 -5 95 -9 175 -8 114 0 153 4 183 17 32 15 37 15 37
2 0 -19 33 -13 122 22 57 22 62 23 74 6 11 -13 15 -14 22 -4 6 9 18 5 48 -19
56 -44 156 -93 255 -123 59 -18 95 -35 117 -57 18 -17 32 -27 32 -23 0 5 5 2
10 -6 5 -8 7 -25 3 -37 -10 -42 7 -23 42 47 51 101 158 256 226 325 32 33 71
76 86 96 16 20 70 81 121 134 69 74 95 95 104 87 12 -9 45 -8 103 3 11 2 30 4
43 4 12 1 22 7 22 16 0 8 4 15 10 15 5 0 8 8 7 18 -6 31 -36 92 -44 90 -20 -7
-12 17 19 56 22 29 40 42 54 41 39 -3 87 27 91 58 2 15 0 27 -5 27 -4 0 -8 9
-9 20 -2 23 26 27 45 8 9 -9 12 -9 12 0 0 7 -3 12 -7 12 -5 0 -14 4 -21 9 -11
7 -9 16 11 49 38 60 80 156 75 172 -1 3 4 14 10 26 19 37 24 76 27 214 3 122
-3 179 -30 320 -7 32 -57 183 -76 225 -4 11 -27 74 -49 139 -22 66 -66 171
-96 233 -31 62 -54 119 -51 127 3 8 -2 25 -12 38 -14 17 -16 26 -8 39 8 13 6
23 -6 42 -9 14 -14 33 -11 41 3 8 -4 33 -16 56 -23 44 -23 89 -1 220 22 136
19 1177 -4 1308 -6 30 -11 121 -14 225 -1 46 -20 48 -45 5 -68 -118 -118 -178
-207 -248 -17 -14 -36 -31 -43 -38 -6 -7 -49 -52 -96 -100 -118 -122 -224
-242 -240 -272 -7 -14 -36 -48 -64 -76 -28 -28 -58 -60 -66 -71 -29 -40 -195
-210 -220 -226 -14 -8 -41 -17 -61 -20 -19 -2 -44 -9 -55 -14 -20 -11 -119
-10 -274 2 -131 10 -250 10 -345 0 -133 -13 -257 -13 -295 0 -19 7 -44 16 -55
20 -11 4 -30 9 -42 11 -21 2 -123 91 -123 106 0 4 -12 20 -27 36 -16 16 -50
55 -78 87 -27 32 -60 70 -73 84 -13 14 -40 46 -60 71 -20 24 -60 68 -88 97
-28 29 -50 53 -48 53 9 0 -147 156 -237 236 -99 89 -172 171 -171 191 1 4 -9
26 -22 48 -13 22 -29 61 -36 88 -19 72 -36 60 -35 -25z"/>
</g>
</svg>
